<svg width="13" height="13" viewBox="0 0 13 13" fill="none" xmlns="http://www.w3.org/2000/svg">
<path d="M6.71568 7.09273L6.53525 7.11048V7.29177V7.56477C6.53525 7.58069 6.52893 7.59595 6.51768 7.6072C6.50643 7.61845 6.49117 7.62477 6.47525 7.62477C6.45934 7.62477 6.44408 7.61845 6.43283 7.6072C6.42158 7.59595 6.41525 7.58069 6.41525 7.56477V7.04477C6.41525 7.02886 6.42158 7.0136 6.43283 7.00235C6.44408 6.9911 6.45934 6.98477 6.47525 6.98477C7.5593 6.98477 8.49525 6.22297 8.49525 5.22477C8.49525 4.22658 7.5593 3.46478 6.47525 3.46478C5.39121 3.46478 4.45525 4.22658 4.45525 5.22477V5.48477C4.45525 5.50069 4.44893 5.51595 4.43768 5.5272C4.42643 5.53845 4.41117 5.54477 4.39525 5.54477C4.37934 5.54477 4.36408 5.53845 4.35283 5.5272C4.34158 5.51595 4.33525 5.50069 4.33525 5.48477V5.22477C4.33525 4.21011 5.27268 3.34478 6.47525 3.34478C7.67782 3.34478 8.61525 4.21011 8.61525 5.22477C8.61525 6.17108 7.80385 6.98573 6.71568 7.09273Z" fill="black" stroke="black" stroke-width="0.4"/>
<path d="M12.8 6.50022C12.8 7.74616 12.4305 8.96412 11.7383 10.0001C11.046 11.0361 10.0621 11.8436 8.91091 12.3204C7.75973 12.7973 6.49301 12.922 5.27093 12.6789C4.04885 12.4359 2.9263 11.8358 2.04523 10.9548C1.16416 10.0737 0.564143 8.95115 0.321056 7.72907C0.0779688 6.50699 0.20273 5.24027 0.679562 4.08909C1.15639 2.93792 1.96388 1.95399 2.99991 1.26174C4.03591 0.569509 5.25391 0.200022 6.49989 0.2C8.17021 0.201863 9.77159 0.86622 10.9527 2.04732C12.1338 3.22844 12.7982 4.82986 12.8 6.50022Z" stroke="black" stroke-width="0.4"/>
<circle cx="6.53716" cy="9.90483" r="0.594286" fill="black"/>
</svg>
