<svg width="10" height="10" viewBox="0 0 10 10" fill="none" xmlns="http://www.w3.org/2000/svg">
<path d="M5.16623 5.45979L5.03091 5.47309V5.60907V5.81907C5.03091 5.83233 5.02564 5.84505 5.01626 5.85442C5.00689 5.8638 4.99417 5.86907 4.98091 5.86907C4.96765 5.86907 4.95493 5.8638 4.94555 5.85442C4.93618 5.84505 4.93091 5.83233 4.93091 5.81907V5.41907C4.93091 5.4058 4.93618 5.39309 4.94555 5.38371C4.95493 5.37434 4.96765 5.36907 4.98091 5.36907C5.81324 5.36907 6.53091 4.78425 6.53091 4.01907C6.53091 3.25388 5.81324 2.66907 4.98091 2.66907C4.14857 2.66907 3.43091 3.25388 3.43091 4.01907V4.21907C3.43091 4.23233 3.42564 4.24505 3.41626 4.25442C3.40689 4.2638 3.39417 4.26907 3.38091 4.26907C3.36765 4.26907 3.35493 4.2638 3.34555 4.25442C3.33618 4.24505 3.33091 4.23233 3.33091 4.21907V4.01907C3.33091 3.23602 4.05417 2.56907 4.98091 2.56907C5.90765 2.56907 6.63091 3.23602 6.63091 4.01907C6.63091 4.74935 6.00485 5.37732 5.16623 5.45979Z" fill="black" stroke="black" stroke-width="0.3"/>
<path d="M9.85 5.00016C9.84997 5.95935 9.56552 6.89698 9.03263 7.69451C8.4997 8.49209 7.74224 9.11373 6.85602 9.48081C5.96979 9.8479 4.99462 9.94394 4.05381 9.75681C3.11301 9.56967 2.24882 9.10775 1.57053 8.42947C0.89225 7.75118 0.430332 6.88699 0.243194 5.94619C0.0560554 5.00538 0.152101 4.03021 0.519186 3.14398C0.886271 2.25776 1.50791 1.5003 2.30549 0.967372C3.10304 0.434463 4.04071 0.150016 4.99992 0.15C6.2858 0.151434 7.5186 0.662883 8.42786 1.57214C9.33714 2.48142 9.84859 3.71425 9.85 5.00016Z" stroke="black" stroke-width="0.3"/>
<circle cx="5.02855" cy="7.61913" r="0.457143" fill="black"/>
</svg>
