<svg width="76" height="56" viewBox="0 0 76 56" fill="none" xmlns="http://www.w3.org/2000/svg">
<g filter="url(#filter0_d_216_1612)">
<path d="M66.4 41.4375H64.8C62.196 41.4375 60.22 40.5988 59.191 39.6545C58.301 38.8367 57.225 38.25 56.014 38.25H54.384C53.173 38.25 52.097 38.8367 51.207 39.6545C50.18 40.5988 48.204 41.4375 45.6 41.4375C42.996 41.4375 41.02 40.5988 39.991 39.6545C39.101 38.8367 38.025 38.25 36.814 38.25H35.184C33.973 38.25 32.897 38.8367 32.007 39.6545C30.98 40.5988 29.004 41.4375 26.4 41.4375C23.796 41.4375 21.82 40.5988 20.791 39.6545C19.901 38.8367 18.825 38.25 17.614 38.25H15.984C14.773 38.25 13.697 38.8367 12.807 39.6545C11.78 40.5988 9.804 41.4375 7.2 41.4375H5.6C4.716 41.4375 4 42.1507 4 43.0312V46.2188C4 47.0993 4.716 47.8125 5.6 47.8125H7.2C11.062 47.8125 14.472 46.5983 16.8 44.6409C19.128 46.5993 22.538 47.8125 26.4 47.8125C30.262 47.8125 33.672 46.5983 36 44.6409C38.328 46.5993 41.738 47.8125 45.6 47.8125C49.462 47.8125 52.872 46.5983 55.2 44.6409C57.528 46.5993 60.938 47.8125 64.8 47.8125H66.4C67.284 47.8125 68 47.0993 68 46.2188V43.0312C68 42.1507 67.284 41.4375 66.4 41.4375ZM26.4 38.25V28.6875H45.6V38.25C47.512 38.25 48.686 37.6364 49.039 37.3117C49.956 36.469 50.959 35.8833 52 35.5117V12.75C52 10.9929 53.436 9.5625 55.2 9.5625C56.964 9.5625 58.4 10.9929 58.4 12.75V14.3438C58.4 15.2243 59.116 15.9375 60 15.9375H63.2C64.084 15.9375 64.8 15.2243 64.8 14.3438V12.75C64.8 7.47668 60.494 3.1875 55.2 3.1875C49.906 3.1875 45.6 7.47668 45.6 12.75V22.3125H26.4V12.75C26.4 10.9929 27.836 9.5625 29.6 9.5625C31.364 9.5625 32.8 10.9929 32.8 12.75V14.3438C32.8 15.2243 33.516 15.9375 34.4 15.9375H37.6C38.484 15.9375 39.2 15.2243 39.2 14.3438V12.75C39.2 7.47668 34.894 3.1875 29.6 3.1875C24.306 3.1875 20 7.47668 20 12.75V35.5107C21.041 35.8823 22.044 36.469 22.961 37.3107C23.314 37.6364 24.488 38.25 26.4 38.25Z" fill="#666666"/>
<path d="M58.8527 40.0227L58.8529 40.0229C59.9934 41.0695 62.0997 41.9375 64.8 41.9375H66.4C67.0097 41.9375 67.5 42.4287 67.5 43.0312V46.2188C67.5 46.8213 67.0097 47.3125 66.4 47.3125H64.8C61.0377 47.3125 57.7468 46.13 55.5219 44.2583L55.2001 43.9876L54.8782 44.2582C52.6531 46.129 49.3622 47.3125 45.6 47.3125C41.8377 47.3125 38.5468 46.13 36.3219 44.2583L36.0001 43.9876L35.6782 44.2582C33.4531 46.129 30.1622 47.3125 26.4 47.3125C22.6377 47.3125 19.3468 46.13 17.1219 44.2583L16.8001 43.9876L16.4782 44.2582C14.2531 46.129 10.9622 47.3125 7.2 47.3125H5.6C4.9903 47.3125 4.5 46.8213 4.5 46.2188V43.0312C4.5 42.4287 4.9903 41.9375 5.6 41.9375H7.2C9.90017 41.9375 12.0067 41.0696 13.1454 40.0226C13.981 39.2548 14.9417 38.75 15.984 38.75H17.614C18.6563 38.75 19.6171 39.2548 20.4527 40.0227L20.4529 40.0229C21.5934 41.0695 23.6997 41.9375 26.4 41.9375C29.1001 41.9375 31.2066 41.0696 32.3453 40.0227C33.1809 39.2548 34.1417 38.75 35.184 38.75H36.814C37.8563 38.75 38.8171 39.2548 39.6527 40.0227L39.6529 40.0229C40.7934 41.0695 42.8997 41.9375 45.6 41.9375C48.3002 41.9375 50.4067 41.0696 51.5454 40.0226C52.381 39.2548 53.3417 38.75 54.384 38.75H56.014C57.0563 38.75 58.0171 39.2548 58.8527 40.0227ZM26.4 28.1875H25.9V28.6875V37.7348C24.3862 37.6412 23.5145 37.1411 23.3001 36.9432L23.2991 36.9423C22.4298 36.1444 21.4842 35.5615 20.5 35.1657V12.75C20.5 7.75467 24.5803 3.6875 29.6 3.6875C34.6197 3.6875 38.7 7.75467 38.7 12.75V14.3438C38.7 14.9463 38.2097 15.4375 37.6 15.4375H34.4C33.7903 15.4375 33.3 14.9463 33.3 14.3438V12.75C33.3 10.7149 31.6383 9.0625 29.6 9.0625C27.5617 9.0625 25.9 10.7149 25.9 12.75V22.3125V22.8125H26.4H45.6H46.1V22.3125V12.75C46.1 7.75467 50.1803 3.6875 55.2 3.6875C60.2197 3.6875 64.3 7.75467 64.3 12.75V14.3438C64.3 14.9463 63.8097 15.4375 63.2 15.4375H60C59.3903 15.4375 58.9 14.9463 58.9 14.3438V12.75C58.9 10.7149 57.2383 9.0625 55.2 9.0625C53.1617 9.0625 51.5 10.7149 51.5 12.75V35.1667C50.5159 35.5622 49.5702 36.1444 48.7007 36.9435L48.7005 36.9437C48.4858 37.1412 47.6137 37.6412 46.1 37.7348V28.6875V28.1875H45.6H26.4Z" stroke="#666666"/>
</g>
<defs>
<filter id="filter0_d_216_1612" x="0" y="3.1875" width="72" height="52.625" filterUnits="userSpaceOnUse" color-interpolation-filters="sRGB">
<feFlood flood-opacity="0" result="BackgroundImageFix"/>
<feColorMatrix in="SourceAlpha" type="matrix" values="0 0 0 0 0 0 0 0 0 0 0 0 0 0 0 0 0 0 127 0" result="hardAlpha"/>
<feOffset dy="4"/>
<feGaussianBlur stdDeviation="2"/>
<feComposite in2="hardAlpha" operator="out"/>
<feColorMatrix type="matrix" values="0 0 0 0 0 0 0 0 0 0 0 0 0 0 0 0 0 0 0.25 0"/>
<feBlend mode="normal" in2="BackgroundImageFix" result="effect1_dropShadow_216_1612"/>
<feBlend mode="normal" in="SourceGraphic" in2="effect1_dropShadow_216_1612" result="shape"/>
</filter>
</defs>
</svg>
