<svg width="63" height="64" viewBox="0 0 63 64" fill="none" xmlns="http://www.w3.org/2000/svg">
<path d="M31.5 31.9999C38.4588 31.9999 44.1 26.2691 44.1 19.1999C44.1 12.1307 38.4588 6.3999 31.5 6.3999C24.5412 6.3999 18.9 12.1307 18.9 19.1999C18.9 26.2691 24.5412 31.9999 31.5 31.9999Z" fill="#666666"/>
<path d="M50.4 57.6C52.1398 57.6 53.573 56.16 53.3255 54.4108C53.0643 52.566 52.5767 50.7574 51.8717 49.0278C50.7636 46.31 49.1394 43.8409 47.0916 41.7609C45.0441 39.6806 42.6136 38.0307 39.9383 36.9049C37.263 35.7795 34.3958 35.2 31.5 35.2C28.6044 35.2 25.7371 35.7795 23.0619 36.9049C20.3867 38.0307 17.9559 39.6806 15.9083 41.7609C13.8608 43.8409 12.2366 46.31 11.1285 49.0278C10.4233 50.7574 9.93587 52.566 9.67467 54.4108C9.42699 56.16 10.8604 57.6 12.6 57.6H31.5H50.4Z" fill="#666666"/>
</svg>
