<svg width="10" height="11" viewBox="0 0 10 11" fill="none" xmlns="http://www.w3.org/2000/svg">
<path d="M1.17644 10.7633L1.60988 9.03652L1.63063 8.95385L1.57024 8.89371C1.09089 8.41636 0.600318 7.56715 0.339655 6.53654C0.0798352 5.50927 0.051465 4.31354 0.480265 3.14122C0.849009 2.25635 1.47273 1.49994 2.27285 0.967532C3.07384 0.434543 4.01562 0.150016 4.97909 0.15C6.27069 0.151434 7.50886 0.663034 8.42197 1.57236C9.33509 2.48168 9.84858 3.71446 9.85 5.00016C9.84997 5.95921 9.56438 6.89676 9.02928 7.69427C8.49414 8.49185 7.73346 9.11357 6.84336 9.48073C5.95326 9.84789 4.97377 9.94397 4.0288 9.75678L3.98793 9.74869L3.94874 9.76283L1.17644 10.7633Z" stroke="#0085FF" stroke-width="0.3"/>
<ellipse cx="0.502083" cy="0.5" rx="0.502083" ry="0.5" transform="matrix(-1 0 0 1 7.53125 4.69995)" stroke="#0085FF" stroke-width="0.25"/>
<ellipse cx="0.502083" cy="0.5" rx="0.502083" ry="0.5" transform="matrix(-1 0 0 1 5.5271 4.69995)" stroke="#0085FF" stroke-width="0.25"/>
<ellipse cx="0.502083" cy="0.5" rx="0.502083" ry="0.5" transform="matrix(-1 0 0 1 3.52295 4.69995)" stroke="#0085FF" stroke-width="0.25"/>
</svg>
