<svg width="16" height="18" viewBox="0 0 16 18" fill="none" xmlns="http://www.w3.org/2000/svg">
<path d="M8.72991 0.999943C4.58769 0.999943 0.999973 3.7617 1 8.20619C1 10.2062 2.25801 12.4999 4.29265 14.0203L3.34665 17.5017C3.33797 17.5384 3.33953 17.5771 3.35114 17.6129C3.36275 17.6487 3.38389 17.6799 3.41188 17.7027C3.43988 17.7254 3.47347 17.7387 3.50842 17.7407C3.54336 17.7428 3.57808 17.7336 3.60819 17.7142L7.25804 14.9999C7.64066 15.0538 8.02605 15.0817 8.41188 15.0833C13.0922 15.103 15.758 11.5557 15.758 7.99994C15.758 4.44422 12.8721 0.999943 8.72991 0.999943Z" stroke="#222222" stroke-width="0.5" stroke-linecap="round" stroke-linejoin="round"/>
<path d="M8.4723 8.79422C8.94001 8.79422 9.31916 8.41506 9.31916 7.94734C9.31916 7.47962 8.94001 7.10047 8.4723 7.10047C8.00459 7.10047 7.62544 7.47962 7.62544 7.94734C7.62544 8.41506 8.00459 8.79422 8.4723 8.79422Z" stroke="#222222" stroke-width="0.5" stroke-linecap="round" stroke-linejoin="round"/>
<path d="M11.516 8.79422C11.9837 8.79422 12.3628 8.41506 12.3628 7.94734C12.3628 7.47962 11.9837 7.10047 11.516 7.10047C11.0483 7.10047 10.6691 7.47962 10.6691 7.94734C10.6691 8.41506 11.0483 8.79422 11.516 8.79422Z" stroke="#222222" stroke-width="0.5" stroke-linecap="round" stroke-linejoin="round"/>
<path d="M5.43173 8.79422C5.89944 8.79422 6.27859 8.41506 6.27859 7.94734C6.27859 7.47962 5.89944 7.10047 5.43173 7.10047C4.96403 7.10047 4.58488 7.47962 4.58488 7.94734C4.58488 8.41506 4.96403 8.79422 5.43173 8.79422Z" stroke="#222222" stroke-width="0.5" stroke-linecap="round" stroke-linejoin="round"/>
</svg>
